REM DIRINDEX 1\4,1\2\5,1\2\6,1\2\7,1\3\8,1\3\9,1\3\10,1\3\11
REM DIRNAME folder01,folder02,folder03,folder04,folder05,folder06,folder07,folder08,folder09,folder10,folder11
TITLE ""
FILE "t_k_168-178.mp3" MP3
  TRACK 01 AUDIO
    TITLE "5:cjc108_0504"
    INDEX 01 00:00:00
  TRACK 02 AUDIO
    TITLE "0:"
    INDEX 01 00:01:07
  TRACK 03 AUDIO
    TITLE "6:cjc108_0505"
    INDEX 01 00:01:21
  TRACK 04 AUDIO
    TITLE "0:"
    INDEX 01 00:02:14
  TRACK 05 AUDIO
    TITLE "7:cjc108_0506"
    INDEX 01 00:02:32
  TRACK 06 AUDIO
    TITLE "0:"
    INDEX 01 00:06:73
  TRACK 07 AUDIO
    TITLE "5:cjc108_0507"
    INDEX 01 00:07:54
  TRACK 08 AUDIO
    TITLE "0:"
    INDEX 01 00:09:10
  TRACK 09 AUDIO
    TITLE "6:cjc108_0508"
    INDEX 01 00:09:14
  TRACK 10 AUDIO
    TITLE "0:"
    INDEX 01 00:11:40
  TRACK 11 AUDIO
    TITLE "7:cjc108_0509"
    INDEX 01 00:11:50
  TRACK 12 AUDIO
    TITLE "0:"
    INDEX 01 00:16:48
  TRACK 13 AUDIO
    TITLE "5:cjc108_0510"
    INDEX 01 00:17:31
  TRACK 14 AUDIO
    TITLE "0:"
    INDEX 01 00:18:37
  TRACK 15 AUDIO
    TITLE "6:cjc108_0511"
    INDEX 01 00:18:42
  TRACK 16 AUDIO
    TITLE "0:"
    INDEX 01 00:20:55
  TRACK 17 AUDIO
    TITLE "7:cjc108_0512"
    INDEX 01 00:21:06
  TRACK 18 AUDIO
    TITLE "0:"
    INDEX 01 00:28:10
  TRACK 19 AUDIO
    TITLE "5:cjc108_0513"
    INDEX 01 00:28:70
  TRACK 20 AUDIO
    TITLE "0:"
    INDEX 01 00:30:10
  TRACK 21 AUDIO
    TITLE "6:cjc108_0514"
    INDEX 01 00:30:20
  TRACK 22 AUDIO
    TITLE "0:"
    INDEX 01 00:32:47
  TRACK 23 AUDIO
    TITLE "7:cjc108_0515"
    INDEX 01 00:32:62
  TRACK 24 AUDIO
    TITLE "0:"
    INDEX 01 00:38:28
  TRACK 25 AUDIO
    TITLE "5:cjc108_0516"
    INDEX 01 00:39:07
  TRACK 26 AUDIO
    TITLE "0:"
    INDEX 01 00:40:28
  TRACK 27 AUDIO
    TITLE "6:cjc108_0517"
    INDEX 01 00:40:50
  TRACK 28 AUDIO
    TITLE "0:"
    INDEX 01 00:43:07
  TRACK 29 AUDIO
    TITLE "7:cjc108_0518"
    INDEX 01 00:43:17
  TRACK 30 AUDIO
    TITLE "0:"
    INDEX 01 00:49:29
  TRACK 31 AUDIO
    TITLE "5:cjc108_0519"
    INDEX 01 00:50:15
  TRACK 32 AUDIO
    TITLE "0:"
    INDEX 01 00:51:38
  TRACK 33 AUDIO
    TITLE "6:cjc108_0520"
    INDEX 01 00:51:58
  TRACK 34 AUDIO
    TITLE "0:"
    INDEX 01 00:54:23
  TRACK 35 AUDIO
    TITLE "7:cjc108_0521"
    INDEX 01 00:54:38
  TRACK 36 AUDIO
    TITLE "0:"
    INDEX 01 00:59:16
  TRACK 37 AUDIO
    TITLE "5:cjc108_0522"
    INDEX 01 01:00:02
  TRACK 38 AUDIO
    TITLE "0:"
    INDEX 01 01:01:29
  TRACK 39 AUDIO
    TITLE "6:cjc108_0523"
    INDEX 01 01:01:38
  TRACK 40 AUDIO
    TITLE "0:"
    INDEX 01 01:02:55
  TRACK 41 AUDIO
    TITLE "7:cjc108_0524"
    INDEX 01 01:02:67
  TRACK 42 AUDIO
    TITLE "0:"
    INDEX 01 01:09:07
  TRACK 43 AUDIO
    TITLE "5:cjc108_0525"
    INDEX 01 01:09:59
  TRACK 44 AUDIO
    TITLE "0:"
    INDEX 01 01:11:07
  TRACK 45 AUDIO
    TITLE "6:cjc108_0526"
    INDEX 01 01:11:11
  TRACK 46 AUDIO
    TITLE "0:"
    INDEX 01 01:13:26
  TRACK 47 AUDIO
    TITLE "7:cjc108_0527"
    INDEX 01 01:13:44
  TRACK 48 AUDIO
    TITLE "0:"
    INDEX 01 01:18:37
  TRACK 49 AUDIO
    TITLE "5:cjc108_0528"
    INDEX 01 01:19:13
  TRACK 50 AUDIO
    TITLE "0:"
    INDEX 01 01:20:38
  TRACK 51 AUDIO
    TITLE "6:cjc108_0529"
    INDEX 01 01:20:40
  TRACK 52 AUDIO
    TITLE "0:"
    INDEX 01 01:23:22
  TRACK 53 AUDIO
    TITLE "7:cjc108_0530"
    INDEX 01 01:23:34
  TRACK 54 AUDIO
    TITLE "0:"
    INDEX 01 01:29:19
  TRACK 55 AUDIO
    TITLE "5:cjc108_0531"
    INDEX 01 01:30:11
  TRACK 56 AUDIO
    TITLE "0:"
    INDEX 01 01:31:28
  TRACK 57 AUDIO
    TITLE "6:cjc108_0532"
    INDEX 01 01:31:47
  TRACK 58 AUDIO
    TITLE "0:"
    INDEX 01 01:33:70
  TRACK 59 AUDIO
    TITLE "7:cjc108_0533"
    INDEX 01 01:34:03
  TRACK 60 AUDIO
    TITLE "0:"
    INDEX 01 01:39:14
  TRACK 61 AUDIO
    TITLE "5:cjc108_0534"
    INDEX 01 01:39:63
  TRACK 62 AUDIO
    TITLE "0:"
    INDEX 01 01:41:16
  TRACK 63 AUDIO
    TITLE "6:cjc108_0535"
    INDEX 01 01:41:40
  TRACK 64 AUDIO
    TITLE "0:"
    INDEX 01 01:44:19
  TRACK 65 AUDIO
    TITLE "7:cjc108_0536"
    INDEX 01 01:44:32
  TRACK 66 AUDIO
    TITLE "0:"
    INDEX 01 01:49:71
